<svg width="20" height="20" viewBox="0 0 20 20" fill="none" xmlns="http://www.w3.org/2000/svg">
<path d="M9.94412 19.9211L6.93838 16.9885C6.91118 16.9612 6.8896 16.9288 6.87487 16.8931C6.86014 16.8573 6.85256 16.819 6.85256 16.7803C6.85256 16.7416 6.86014 16.7032 6.87487 16.6675C6.8896 16.6317 6.91118 16.5993 6.93838 16.572L10.3039 13.1702C10.3244 13.1514 10.3387 13.1265 10.3447 13.0992C10.3506 13.0718 10.348 13.0432 10.3372 13.0174C10.3263 12.9916 10.3078 12.9698 10.2841 12.9552C10.2605 12.9405 10.2329 12.9337 10.2052 12.9356L4.24018 12.8945L2.89978 12.8945C2.79347 12.8945 2.69139 12.8524 2.61545 12.7772L0.108736 10.2434C0.0747524 10.2154 0.0473667 10.18 0.0285602 10.1399C0.00975374 10.0999 -4.39565e-07 10.0561 -4.37626e-07 10.0117C-4.35688e-07 9.96737 0.00975375 9.92358 0.0285602 9.88351C0.0473667 9.84344 0.0747524 9.80811 0.108736 9.78005L2.59224 7.21692C2.66818 7.14172 2.77026 7.0996 2.87657 7.09961L4.16474 7.09961L10.182 7.06442C10.2097 7.06633 10.2373 7.05949 10.2609 7.04482C10.2846 7.03016 10.3031 7.00841 10.3139 6.9826C10.3248 6.9568 10.3274 6.92822 10.3215 6.90084C10.3155 6.87346 10.3012 6.84863 10.2807 6.82981L6.91517 3.42796C6.88798 3.40069 6.86639 3.36825 6.85166 3.33252C6.83693 3.29678 6.82935 3.25845 6.82935 3.21973C6.82935 3.18102 6.83693 3.14268 6.85166 3.10695C6.86639 3.07121 6.88798 3.03877 6.91517 3.01151L9.92091 0.0788644C9.97095 0.028363 10.0388 -4.35419e-07 10.1095 -4.32328e-07C10.1802 -4.29237e-07 10.248 0.0283631 10.2981 0.0788645L10.5476 0.331067L15.4102 5.25205L19.8839 9.7214C19.9545 9.78878 19.9962 9.88142 20 9.97947C19.9959 10.0792 19.9544 10.1735 19.8839 10.2434L15.5088 14.6717L10.5708 19.6631L10.3213 19.9211C10.2712 19.9716 10.2034 20 10.1327 20C10.062 20 9.99416 19.9716 9.94412 19.9211Z" fill="white"/>
</svg>
