<svg width="32" height="26" viewBox="0 0 32 26" fill="none" xmlns="http://www.w3.org/2000/svg">
<path d="M25.9146 11.143C25.4766 6.58007 21.6774 3 17 3C13.3808 3 10.2817 5.14795 8.85349 8.22999C8.42344 8.09295 7.97539 7.99999 7.50037 7.99999C5.0152 7.99999 3.00013 10.0159 3.00013 12.4999C3.00013 12.9939 3.09913 13.461 3.24614 13.904C1.31307 15.031 0 17.1 0 19.498C0 23.088 2.91018 25.998 6.50044 25.998V26H24.5005V25.998C28.6448 25.998 32 22.641 32 18.498C32 14.842 29.3798 11.805 25.9146 11.143Z" fill="#EBEBEB"/>
<path d="M14.9409 7.54191L12.7414 9.79622C12.7209 9.81661 12.6966 9.8328 12.6698 9.84385C12.643 9.85489 12.6142 9.86058 12.5852 9.86058C12.5562 9.86058 12.5274 9.85489 12.5006 9.84385C12.4738 9.8328 12.4495 9.81661 12.429 9.79622L9.87764 7.27209C9.86353 7.25666 9.84491 7.24597 9.82437 7.2415C9.80383 7.23703 9.7824 7.239 9.76305 7.24713C9.74369 7.25527 9.72738 7.26917 9.71638 7.2869C9.70539 7.30464 9.70025 7.32532 9.70168 7.34607L9.67089 11.8199V12.8252C9.6709 12.9049 9.63931 12.9815 9.5829 13.0384L7.68256 14.9184C7.66152 14.9439 7.63501 14.9645 7.60495 14.9786C7.5749 14.9927 7.54206 15 7.50879 15C7.47553 15 7.44269 14.9927 7.41263 14.9786C7.38258 14.9645 7.35608 14.9439 7.33504 14.9184L5.41269 13.0558C5.35629 12.9989 5.3247 12.9223 5.32471 12.8426V11.8764L5.29832 7.36348C5.29975 7.34273 5.29461 7.32204 5.28362 7.30431C5.27262 7.28658 5.25631 7.27268 5.23695 7.26454C5.2176 7.2564 5.19617 7.25444 5.17563 7.25891C5.15509 7.26338 5.13647 7.27407 5.12236 7.2895L2.57097 9.81362C2.55052 9.83402 2.52619 9.85021 2.49939 9.86125C2.47258 9.8723 2.44383 9.87799 2.4148 9.87799C2.38576 9.87799 2.35701 9.8723 2.33021 9.86125C2.30341 9.85021 2.27908 9.83402 2.25863 9.81362L0.0591487 7.55932C0.0212726 7.52179 0 7.47092 0 7.41788C0 7.36484 0.0212726 7.31398 0.0591487 7.27644L0.248301 7.08931L3.93904 3.44238L7.29105 0.0870388C7.34159 0.0341133 7.41106 0.00287004 7.4846 0C7.55936 0.00310156 7.63014 0.0342183 7.68256 0.0870388L11.0038 3.3684L14.7473 7.0719L14.9409 7.25903C14.9787 7.29657 15 7.34744 15 7.40047C15 7.45351 14.9787 7.50438 14.9409 7.54191Z" fill="#C73145"/>
</svg>
